<svg width="300" height="300" viewBox="0 0 300 300" fill="none" xmlns="http://www.w3.org/2000/svg">
<g clip-path="url(#clip0_31_84)">
<path d="M206.696 11.092C268.824 11.1148 300.63 11.283 300.751 11.5833C300.846 11.8335 295.562 19.6147 289.003 28.8743C282.449 38.1338 273.675 50.5192 269.504 56.4026C265.747 61.7074 257.161 73.7965 238.612 99.9046C235.791 103.874 234.381 105.859 235.18 107.415C235.98 108.971 238.412 108.98 243.277 108.998L262.663 109.071C286.678 109.162 293.155 109.307 293.169 109.753C293.175 110.071 285.126 121.586 275.28 135.348C265.438 149.112 254.722 164.059 251.47 168.564C248.507 172.673 244.416 178.316 238.648 186.236C237.809 187.388 237.39 187.964 236.78 188.277C236.171 188.589 235.458 188.594 234.034 188.603L207.631 188.771C206.187 188.78 205.465 188.784 204.849 189.104C204.234 189.424 203.815 190.013 202.978 191.189L194.238 203.477C189.956 209.497 184.8 216.72 178.721 225.192C175.853 229.189 174.419 231.187 175.221 232.75C176.024 234.314 178.481 234.314 183.397 234.314H220.378C246.881 234.314 268.648 234.468 268.767 234.655C268.867 234.841 263.905 241.967 257.737 250.49C252.004 258.417 244.111 269.338 233.006 284.7L231.886 286.249C231.182 287.224 230.829 287.711 230.329 288.014C230.325 288.016 230.321 288.019 230.317 288.021C229.815 288.321 229.219 288.404 228.027 288.57C226.694 288.756 201.608 288.91 172.279 288.91C138.059 288.915 116.873 288.738 113.151 288.424C109.963 288.156 104.591 287.427 101.212 286.813C97.8325 286.194 92.5104 284.834 89.3857 283.792C86.2519 282.746 79.9253 280.015 75.2861 277.713C70.656 275.411 64.3112 271.843 61.1865 269.781C58.0619 267.72 53.5594 264.49 51.1807 262.602C48.8019 260.714 44.2946 256.596 41.1562 253.451C38.0226 250.307 33.6513 245.485 31.4453 242.732C29.2439 239.979 25.8053 235.269 23.8086 232.266C21.8119 229.263 18.3644 223.12 16.1494 218.615C13.9344 214.111 11.0962 207.559 9.84082 204.055C8.58554 200.551 6.95693 195.533 6.22461 192.907C5.49235 190.282 4.46511 185.977 3.9375 183.352C3.4099 180.726 2.68222 176.526 2.31836 174.024C1.94995 171.521 1.40794 166.402 1.1123 162.649C0.771187 158.331 0.666992 151.146 0.826172 143.083C0.976266 135.416 1.36317 128.258 1.7998 125.11C2.19552 122.234 3.1503 116.701 3.91895 112.824C4.68758 108.948 6.03395 103.415 6.90723 100.539C7.78048 97.6637 9.21266 93.3634 10.0859 90.9836C10.9546 88.604 13.2836 83.3852 15.2529 79.3811C17.2223 75.377 19.993 70.2575 21.4121 68.0051C22.8312 65.7528 25.7554 61.5535 27.9111 58.678C30.067 55.8023 34.5975 50.6058 37.9814 47.134C41.3608 43.6668 46.1771 39.1709 48.6787 37.1506C51.1803 35.1349 55.6837 31.8676 58.6855 29.8928C61.6875 27.9226 67.2137 24.8062 70.9658 22.968C74.7179 21.1299 79.8343 18.8732 82.3359 17.9495C84.8375 17.0258 89.3409 15.5924 92.3428 14.7688C95.3447 13.9452 100.357 12.8481 103.486 12.3293C106.61 11.8107 109.989 11.3101 110.99 11.219C111.991 11.128 155.059 11.0693 206.696 11.092ZM184.787 64.4788C184.723 64.4151 168.095 64.4741 147.832 64.6106C112.123 64.8518 110.877 64.8881 107.352 65.8254C105.35 66.3578 102.38 67.2949 100.757 67.9045C99.1331 68.5143 96.4675 69.689 94.8438 70.5081C93.2201 71.3316 90.5553 72.8735 88.9316 73.9426C87.3079 75.0119 84.237 77.3964 82.1084 79.2483C79.9798 81.0957 76.7238 84.4407 74.8682 86.6838C73.0125 88.9225 70.2786 92.5986 68.7959 94.8508C67.3131 97.1032 64.9983 101.199 63.6475 103.951C62.3012 106.704 60.2947 111.718 59.1895 115.099C58.0888 118.475 56.7607 123.394 56.2422 126.02C55.7237 128.645 55.0424 132.64 54.7285 134.892C54.3919 137.276 54.1641 143.355 54.1777 149.452C54.1959 156.742 54.4327 161.506 54.9648 165.151C55.3833 168.031 56.3292 172.841 57.0615 175.844C57.7984 178.847 59.1493 183.456 60.0635 186.081C60.9822 188.707 62.7463 193.012 63.9834 195.637C65.2205 198.262 67.7318 202.666 69.5557 205.419C71.3841 208.172 74.6997 212.345 76.9238 214.693C79.1525 217.04 82.9142 220.421 85.293 222.209C87.6716 223.993 91.2506 226.305 93.252 227.342C95.2531 228.379 98.4278 229.836 100.302 230.577C102.18 231.319 105.655 232.397 108.034 232.975C111.882 233.912 113.497 234.031 122.798 234.058L130.318 234.078C131.75 234.081 132.465 234.083 133.079 233.774C133.694 233.464 134.118 232.887 134.968 231.734C153.541 206.516 162.194 194.791 166.135 189.462C170.201 183.975 177.396 174.26 182.126 167.881L183.975 165.387C186.927 161.404 188.403 159.413 187.614 157.833C186.825 156.253 184.341 156.237 179.372 156.205C122.62 155.835 118.731 155.706 118.755 155.141C118.773 154.763 129.024 140.534 141.532 123.517C154.045 106.499 168.918 86.2785 174.59 78.5842C180.258 70.8948 184.845 64.5504 184.787 64.4788Z" fill="#00E44C"/>
</g>
<defs>
<clipPath id="clip0_31_84">
<rect width="300" height="300" fill="white"/>
</clipPath>
</defs>
</svg>
